<?xml version="1.0" encoding="UTF-8" standalone="no"?>
<!DOCTYPE svg PUBLIC "-//W3C//DTD SVG 1.1//EN"
 "http://www.w3.org/Graphics/SVG/1.1/DTD/svg11.dtd">
<!-- Generated by graphviz version 2.43.0 (0)
 -->
<!-- Title: %3 Pages: 1 -->
<svg width="1318pt" height="1127pt"
 viewBox="0.00 0.00 1317.63 1127.00" xmlns="http://www.w3.org/2000/svg" xmlns:xlink="http://www.w3.org/1999/xlink">
<g id="graph0" class="graph" transform="scale(1 1) rotate(0) translate(4 1123)">
<title>%3</title>
<polygon fill="white" stroke="transparent" points="-4,4 -4,-1123 1313.63,-1123 1313.63,4 -4,4"/>
<!-- android_log -->
<g id="node1" class="node">
<title>android_log</title>
<ellipse fill="none" stroke="black" cx="159.79" cy="-1101" rx="53.09" ry="18"/>
<text text-anchor="middle" x="159.79" y="-1097.3" font-family="Times,serif" font-size="14.00">android_log</text>
</g>
<!-- app_log_trivial_tmp -->
<g id="node2" class="node">
<title>app_log_trivial_tmp</title>
<ellipse fill="none" stroke="black" cx="159.79" cy="-1014" rx="83.39" ry="18"/>
<text text-anchor="middle" x="159.79" y="-1010.3" font-family="Times,serif" font-size="14.00">app_log_trivial_tmp</text>
</g>
<!-- android_log&#45;&gt;app_log_trivial_tmp -->
<g id="edge1" class="edge">
<title>android_log&#45;&gt;app_log_trivial_tmp</title>
<path fill="none" stroke="black" d="M159.79,-1082.8C159.79,-1071.16 159.79,-1055.55 159.79,-1042.24"/>
<polygon fill="black" stroke="black" points="163.29,-1042.18 159.79,-1032.18 156.29,-1042.18 163.29,-1042.18"/>
<text text-anchor="middle" x="185.79" y="-1053.8" font-family="Times,serif" font-size="14.00">CREATE</text>
</g>
<!-- app_log_trivial -->
<g id="node3" class="node">
<title>app_log_trivial</title>
<ellipse fill="none" stroke="black" cx="159.79" cy="-927" rx="64.19" ry="18"/>
<text text-anchor="middle" x="159.79" y="-923.3" font-family="Times,serif" font-size="14.00">app_log_trivial</text>
</g>
<!-- app_log_trivial_tmp&#45;&gt;app_log_trivial -->
<g id="edge2" class="edge">
<title>app_log_trivial_tmp&#45;&gt;app_log_trivial</title>
<path fill="none" stroke="black" d="M159.79,-995.8C159.79,-984.16 159.79,-968.55 159.79,-955.24"/>
<polygon fill="black" stroke="black" points="163.29,-955.18 159.79,-945.18 156.29,-955.18 163.29,-955.18"/>
<text text-anchor="middle" x="188.79" y="-966.8" font-family="Times,serif" font-size="14.00">RENAME</text>
</g>
<!-- app_log_trivial_tmp_old -->
<g id="node4" class="node">
<title>app_log_trivial_tmp_old</title>
<ellipse fill="none" stroke="black" cx="98.79" cy="-786" rx="98.58" ry="18"/>
<text text-anchor="middle" x="98.79" y="-782.3" font-family="Times,serif" font-size="14.00">app_log_trivial_tmp_old</text>
</g>
<!-- app_log_trivial&#45;&gt;app_log_trivial_tmp_old -->
<g id="edge3" class="edge">
<title>app_log_trivial&#45;&gt;app_log_trivial_tmp_old</title>
<path fill="none" stroke="black" d="M138.28,-909.65C132.49,-904.28 126.75,-897.91 122.79,-891 109.18,-867.23 103.29,-836.24 100.74,-814.29"/>
<polygon fill="black" stroke="black" points="104.22,-813.91 99.73,-804.31 97.25,-814.61 104.22,-813.91"/>
<text text-anchor="middle" x="151.79" y="-879.8" font-family="Times,serif" font-size="14.00">RENAME</text>
</g>
<!-- app_log_simple -->
<g id="node6" class="node">
<title>app_log_simple</title>
<ellipse fill="none" stroke="black" cx="214.79" cy="-840" rx="67.69" ry="18"/>
<text text-anchor="middle" x="214.79" y="-836.3" font-family="Times,serif" font-size="14.00">app_log_simple</text>
</g>
<!-- app_log_trivial&#45;&gt;app_log_simple -->
<g id="edge4" class="edge">
<title>app_log_trivial&#45;&gt;app_log_simple</title>
<path fill="none" stroke="black" d="M170.66,-909.21C178.52,-897.06 189.28,-880.43 198.21,-866.63"/>
<polygon fill="black" stroke="black" points="201.27,-868.35 203.76,-858.05 195.39,-864.54 201.27,-868.35"/>
<text text-anchor="middle" x="214.29" y="-879.8" font-family="Times,serif" font-size="14.00">INSERT</text>
</g>
<!--   -->
<g id="node5" class="node">
<title> </title>
<ellipse fill="none" stroke="black" cx="658.79" cy="-18" rx="27" ry="18"/>
<text text-anchor="middle" x="658.79" y="-14.3" font-family="Times,serif" font-size="14.00"> </text>
</g>
<!-- app_log_trivial_tmp_old&#45;&gt;  -->
<g id="edge5" class="edge">
<title>app_log_trivial_tmp_old&#45;&gt; </title>
<path fill="none" stroke="black" d="M98.79,-767.74C98.79,-746.76 98.79,-710.28 98.79,-679 98.79,-679 98.79,-679 98.79,-104 98.79,-54.31 150.9,-67.24 198.79,-54 278.14,-32.06 526.69,-22.79 621.52,-19.98"/>
<polygon fill="black" stroke="black" points="621.88,-23.48 631.78,-19.69 621.68,-16.48 621.88,-23.48"/>
<text text-anchor="middle" x="117.29" y="-425.3" font-family="Times,serif" font-size="14.00">DROP</text>
</g>
<!-- app_log_simple&#45;&gt;app_log_simple -->
<g id="edge6" class="edge">
<title>app_log_simple&#45;&gt;app_log_simple</title>
<path fill="none" stroke="black" d="M275.96,-847.7C290.04,-847.04 300.39,-844.47 300.39,-840 300.39,-836.68 294.69,-834.41 285.99,-833.19"/>
<polygon fill="black" stroke="black" points="286.23,-829.7 275.96,-832.3 285.61,-836.67 286.23,-829.7"/>
<text text-anchor="middle" x="323.89" y="-836.3" font-family="Times,serif" font-size="14.00">INSERT</text>
</g>
<!-- app_log_new_tmp -->
<g id="node7" class="node">
<title>app_log_new_tmp</title>
<ellipse fill="none" stroke="black" cx="220.79" cy="-732" rx="76.89" ry="18"/>
<text text-anchor="middle" x="220.79" y="-728.3" font-family="Times,serif" font-size="14.00">app_log_new_tmp</text>
</g>
<!-- app_log_simple&#45;&gt;app_log_new_tmp -->
<g id="edge7" class="edge">
<title>app_log_simple&#45;&gt;app_log_new_tmp</title>
<path fill="none" stroke="black" d="M215.76,-821.97C216.69,-805.38 218.14,-779.88 219.24,-760.43"/>
<polygon fill="black" stroke="black" points="222.74,-760.52 219.81,-750.34 215.75,-760.13 222.74,-760.52"/>
<text text-anchor="middle" x="244.79" y="-782.3" font-family="Times,serif" font-size="14.00">CREATE</text>
</g>
<!-- app_log_new -->
<g id="node8" class="node">
<title>app_log_new</title>
<ellipse fill="none" stroke="black" cx="220.79" cy="-624" rx="57.69" ry="18"/>
<text text-anchor="middle" x="220.79" y="-620.3" font-family="Times,serif" font-size="14.00">app_log_new</text>
</g>
<!-- app_log_new_tmp&#45;&gt;app_log_new -->
<g id="edge8" class="edge">
<title>app_log_new_tmp&#45;&gt;app_log_new</title>
<path fill="none" stroke="black" d="M220.79,-713.97C220.79,-697.38 220.79,-671.88 220.79,-652.43"/>
<polygon fill="black" stroke="black" points="224.29,-652.34 220.79,-642.34 217.29,-652.34 224.29,-652.34"/>
<text text-anchor="middle" x="249.79" y="-674.3" font-family="Times,serif" font-size="14.00">RENAME</text>
</g>
<!-- app_log_new_tmp_old -->
<g id="node9" class="node">
<title>app_log_new_tmp_old</title>
<ellipse fill="none" stroke="black" cx="205.79" cy="-483" rx="92.08" ry="18"/>
<text text-anchor="middle" x="205.79" y="-479.3" font-family="Times,serif" font-size="14.00">app_log_new_tmp_old</text>
</g>
<!-- app_log_new&#45;&gt;app_log_new_tmp_old -->
<g id="edge9" class="edge">
<title>app_log_new&#45;&gt;app_log_new_tmp_old</title>
<path fill="none" stroke="black" d="M215.01,-605.73C213.36,-600.14 211.76,-593.86 210.79,-588 206.54,-562.18 205.5,-532.3 205.4,-511.22"/>
<polygon fill="black" stroke="black" points="208.9,-511.07 205.41,-501.06 201.9,-511.05 208.9,-511.07"/>
<text text-anchor="middle" x="239.79" y="-576.8" font-family="Times,serif" font-size="14.00">RENAME</text>
</g>
<!-- app_session_app_log_tmp -->
<g id="node10" class="node">
<title>app_session_app_log_tmp</title>
<ellipse fill="none" stroke="black" cx="338.79" cy="-537" rx="104.78" ry="18"/>
<text text-anchor="middle" x="338.79" y="-533.3" font-family="Times,serif" font-size="14.00">app_session_app_log_tmp</text>
</g>
<!-- app_log_new&#45;&gt;app_session_app_log_tmp -->
<g id="edge10" class="edge">
<title>app_log_new&#45;&gt;app_session_app_log_tmp</title>
<path fill="none" stroke="black" d="M242.71,-607.21C260.9,-594.1 287.01,-575.3 307.42,-560.6"/>
<polygon fill="black" stroke="black" points="309.71,-563.26 315.78,-554.57 305.62,-557.58 309.71,-563.26"/>
<text text-anchor="middle" x="313.79" y="-576.8" font-family="Times,serif" font-size="14.00">CREATE</text>
</g>
<!-- app_log_new_tmp_old&#45;&gt;  -->
<g id="edge11" class="edge">
<title>app_log_new_tmp_old&#45;&gt; </title>
<path fill="none" stroke="black" d="M200.27,-464.95C194.05,-444.17 184.79,-407.89 184.79,-376 184.79,-376 184.79,-376 184.79,-104 184.79,-40.43 256.9,-68.48 318.79,-54 426.66,-28.76 558.03,-21.72 621.25,-19.76"/>
<polygon fill="black" stroke="black" points="621.62,-23.25 631.52,-19.46 621.42,-16.25 621.62,-23.25"/>
<text text-anchor="middle" x="203.29" y="-263.3" font-family="Times,serif" font-size="14.00">DROP</text>
</g>
<!-- app_session_app_log -->
<g id="node11" class="node">
<title>app_session_app_log</title>
<ellipse fill="none" stroke="black" cx="338.79" cy="-429" rx="85.59" ry="18"/>
<text text-anchor="middle" x="338.79" y="-425.3" font-family="Times,serif" font-size="14.00">app_session_app_log</text>
</g>
<!-- app_session_app_log_tmp&#45;&gt;app_session_app_log -->
<g id="edge12" class="edge">
<title>app_session_app_log_tmp&#45;&gt;app_session_app_log</title>
<path fill="none" stroke="black" d="M338.79,-518.97C338.79,-502.38 338.79,-476.88 338.79,-457.43"/>
<polygon fill="black" stroke="black" points="342.29,-457.34 338.79,-447.34 335.29,-457.34 342.29,-457.34"/>
<text text-anchor="middle" x="367.79" y="-479.3" font-family="Times,serif" font-size="14.00">RENAME</text>
</g>
<!-- app_session_app_log_tmp_old -->
<g id="node12" class="node">
<title>app_session_app_log_tmp_old</title>
<ellipse fill="none" stroke="black" cx="319.79" cy="-159" rx="120.48" ry="18"/>
<text text-anchor="middle" x="319.79" y="-155.3" font-family="Times,serif" font-size="14.00">app_session_app_log_tmp_old</text>
</g>
<!-- app_session_app_log&#45;&gt;app_session_app_log_tmp_old -->
<g id="edge13" class="edge">
<title>app_session_app_log&#45;&gt;app_session_app_log_tmp_old</title>
<path fill="none" stroke="black" d="M326.28,-411.01C314.49,-393.84 297.62,-366.06 290.79,-339 277.32,-285.66 295.76,-221.73 308.81,-186.53"/>
<polygon fill="black" stroke="black" points="312.16,-187.57 312.49,-176.98 305.63,-185.06 312.16,-187.57"/>
<text text-anchor="middle" x="319.79" y="-317.3" font-family="Times,serif" font-size="14.00">RENAME</text>
</g>
<!-- phone_aggregation_app_log_tmp -->
<g id="node29" class="node">
<title>phone_aggregation_app_log_tmp</title>
<ellipse fill="none" stroke="black" cx="486.79" cy="-321" rx="129.18" ry="18"/>
<text text-anchor="middle" x="486.79" y="-317.3" font-family="Times,serif" font-size="14.00">phone_aggregation_app_log_tmp</text>
</g>
<!-- app_session_app_log&#45;&gt;phone_aggregation_app_log_tmp -->
<g id="edge14" class="edge">
<title>app_session_app_log&#45;&gt;phone_aggregation_app_log_tmp</title>
<path fill="none" stroke="black" d="M361.92,-411.44C386.97,-393.5 427.09,-364.76 455.08,-344.72"/>
<polygon fill="black" stroke="black" points="457.25,-347.46 463.34,-338.8 453.17,-341.77 457.25,-347.46"/>
<text text-anchor="middle" x="460.79" y="-371.3" font-family="Times,serif" font-size="14.00">CREATE</text>
</g>
<!-- app_session_app_log_tmp_old&#45;&gt;  -->
<g id="edge15" class="edge">
<title>app_session_app_log_tmp_old&#45;&gt; </title>
<path fill="none" stroke="black" d="M305.14,-140.84C293.74,-125.32 281.85,-102.58 294.79,-87 336.1,-37.26 537.22,-23.7 621.51,-20.18"/>
<polygon fill="black" stroke="black" points="621.8,-23.67 631.66,-19.78 621.53,-16.67 621.8,-23.67"/>
<text text-anchor="middle" x="313.29" y="-101.3" font-family="Times,serif" font-size="14.00">DROP</text>
</g>
<!-- app_session -->
<g id="node13" class="node">
<title>app_session</title>
<ellipse fill="none" stroke="black" cx="822.79" cy="-1014" rx="53.09" ry="18"/>
<text text-anchor="middle" x="822.79" y="-1010.3" font-family="Times,serif" font-size="14.00">app_session</text>
</g>
<!-- app_session_daily_tmp -->
<g id="node14" class="node">
<title>app_session_daily_tmp</title>
<ellipse fill="none" stroke="black" cx="822.79" cy="-927" rx="93.68" ry="18"/>
<text text-anchor="middle" x="822.79" y="-923.3" font-family="Times,serif" font-size="14.00">app_session_daily_tmp</text>
</g>
<!-- app_session&#45;&gt;app_session_daily_tmp -->
<g id="edge16" class="edge">
<title>app_session&#45;&gt;app_session_daily_tmp</title>
<path fill="none" stroke="black" d="M822.79,-995.8C822.79,-984.16 822.79,-968.55 822.79,-955.24"/>
<polygon fill="black" stroke="black" points="826.29,-955.18 822.79,-945.18 819.29,-955.18 826.29,-955.18"/>
<text text-anchor="middle" x="848.79" y="-966.8" font-family="Times,serif" font-size="14.00">CREATE</text>
</g>
<!-- app_session_daily -->
<g id="node15" class="node">
<title>app_session_daily</title>
<ellipse fill="none" stroke="black" cx="822.79" cy="-840" rx="75.29" ry="18"/>
<text text-anchor="middle" x="822.79" y="-836.3" font-family="Times,serif" font-size="14.00">app_session_daily</text>
</g>
<!-- app_session_daily_tmp&#45;&gt;app_session_daily -->
<g id="edge17" class="edge">
<title>app_session_daily_tmp&#45;&gt;app_session_daily</title>
<path fill="none" stroke="black" d="M822.79,-908.8C822.79,-897.16 822.79,-881.55 822.79,-868.24"/>
<polygon fill="black" stroke="black" points="826.29,-868.18 822.79,-858.18 819.29,-868.18 826.29,-868.18"/>
<text text-anchor="middle" x="851.79" y="-879.8" font-family="Times,serif" font-size="14.00">RENAME</text>
</g>
<!-- app_session_daily_tmp_old -->
<g id="node16" class="node">
<title>app_session_daily_tmp_old</title>
<ellipse fill="none" stroke="black" cx="668.79" cy="-678" rx="109.38" ry="18"/>
<text text-anchor="middle" x="668.79" y="-674.3" font-family="Times,serif" font-size="14.00">app_session_daily_tmp_old</text>
</g>
<!-- app_session_daily&#45;&gt;app_session_daily_tmp_old -->
<g id="edge18" class="edge">
<title>app_session_daily&#45;&gt;app_session_daily_tmp_old</title>
<path fill="none" stroke="black" d="M791,-823.52C780.92,-817.98 770,-811.28 760.79,-804 735.13,-783.72 730.34,-776.22 710.79,-750 700.22,-735.82 690.07,-718.8 682.4,-704.97"/>
<polygon fill="black" stroke="black" points="685.37,-703.1 677.51,-695.99 679.22,-706.45 685.37,-703.1"/>
<text text-anchor="middle" x="789.79" y="-782.3" font-family="Times,serif" font-size="14.00">RENAME</text>
</g>
<!-- app_session_6hourly_tmp -->
<g id="node17" class="node">
<title>app_session_6hourly_tmp</title>
<ellipse fill="none" stroke="black" cx="822.79" cy="-732" rx="103.18" ry="18"/>
<text text-anchor="middle" x="822.79" y="-728.3" font-family="Times,serif" font-size="14.00">app_session_6hourly_tmp</text>
</g>
<!-- app_session_daily&#45;&gt;app_session_6hourly_tmp -->
<g id="edge19" class="edge">
<title>app_session_daily&#45;&gt;app_session_6hourly_tmp</title>
<path fill="none" stroke="black" d="M822.79,-821.97C822.79,-805.38 822.79,-779.88 822.79,-760.43"/>
<polygon fill="black" stroke="black" points="826.29,-760.34 822.79,-750.34 819.29,-760.34 826.29,-760.34"/>
<text text-anchor="middle" x="848.79" y="-782.3" font-family="Times,serif" font-size="14.00">CREATE</text>
</g>
<!-- app_aggregation_app_log_tmp -->
<g id="node23" class="node">
<title>app_aggregation_app_log_tmp</title>
<ellipse fill="none" stroke="black" cx="1126.79" cy="-732" rx="120.48" ry="18"/>
<text text-anchor="middle" x="1126.79" y="-728.3" font-family="Times,serif" font-size="14.00">app_aggregation_app_log_tmp</text>
</g>
<!-- app_session_daily&#45;&gt;app_aggregation_app_log_tmp -->
<g id="edge20" class="edge">
<title>app_session_daily&#45;&gt;app_aggregation_app_log_tmp</title>
<path fill="none" stroke="black" d="M863.47,-824.81C917.19,-806.08 1011.97,-773.04 1071.97,-752.12"/>
<polygon fill="black" stroke="black" points="1073.36,-755.34 1081.65,-748.74 1071.05,-748.73 1073.36,-755.34"/>
<text text-anchor="middle" x="1044.79" y="-782.3" font-family="Times,serif" font-size="14.00">CREATE</text>
</g>
<!-- app_session_daily_tmp_old&#45;&gt;  -->
<g id="edge21" class="edge">
<title>app_session_daily_tmp_old&#45;&gt; </title>
<path fill="none" stroke="black" d="M662.43,-660.02C655.93,-641.13 646.79,-609.57 646.79,-581.5 646.79,-581.5 646.79,-581.5 646.79,-428 646.79,-412.34 643.68,-408.63 642.79,-393 641.88,-377.03 642.41,-373 642.79,-357 645.53,-241.41 653.51,-103.77 657.06,-46.31"/>
<polygon fill="black" stroke="black" points="660.56,-46.42 657.69,-36.23 653.57,-45.99 660.56,-46.42"/>
<text text-anchor="middle" x="661.29" y="-371.3" font-family="Times,serif" font-size="14.00">DROP</text>
</g>
<!-- app_session_6hourly -->
<g id="node18" class="node">
<title>app_session_6hourly</title>
<ellipse fill="none" stroke="black" cx="822.79" cy="-624" rx="85.29" ry="18"/>
<text text-anchor="middle" x="822.79" y="-620.3" font-family="Times,serif" font-size="14.00">app_session_6hourly</text>
</g>
<!-- app_session_6hourly_tmp&#45;&gt;app_session_6hourly -->
<g id="edge22" class="edge">
<title>app_session_6hourly_tmp&#45;&gt;app_session_6hourly</title>
<path fill="none" stroke="black" d="M822.79,-713.97C822.79,-697.38 822.79,-671.88 822.79,-652.43"/>
<polygon fill="black" stroke="black" points="826.29,-652.34 822.79,-642.34 819.29,-652.34 826.29,-652.34"/>
<text text-anchor="middle" x="851.79" y="-674.3" font-family="Times,serif" font-size="14.00">RENAME</text>
</g>
<!-- app_session_6hourly_tmp_old -->
<g id="node19" class="node">
<title>app_session_6hourly_tmp_old</title>
<ellipse fill="none" stroke="black" cx="807.79" cy="-375" rx="118.88" ry="18"/>
<text text-anchor="middle" x="807.79" y="-371.3" font-family="Times,serif" font-size="14.00">app_session_6hourly_tmp_old</text>
</g>
<!-- app_session_6hourly&#45;&gt;app_session_6hourly_tmp_old -->
<g id="edge23" class="edge">
<title>app_session_6hourly&#45;&gt;app_session_6hourly_tmp_old</title>
<path fill="none" stroke="black" d="M821.11,-605.97C819.79,-592.22 817.99,-572.38 816.79,-555 813.08,-501.36 810.28,-438.58 808.85,-403.43"/>
<polygon fill="black" stroke="black" points="812.33,-402.89 808.43,-393.04 805.34,-403.17 812.33,-402.89"/>
<text text-anchor="middle" x="845.79" y="-533.3" font-family="Times,serif" font-size="14.00">RENAME</text>
</g>
<!-- app_session_hourly_tmp -->
<g id="node20" class="node">
<title>app_session_hourly_tmp</title>
<ellipse fill="none" stroke="black" cx="982.79" cy="-537" rx="98.58" ry="18"/>
<text text-anchor="middle" x="982.79" y="-533.3" font-family="Times,serif" font-size="14.00">app_session_hourly_tmp</text>
</g>
<!-- app_session_6hourly&#45;&gt;app_session_hourly_tmp -->
<g id="edge24" class="edge">
<title>app_session_6hourly&#45;&gt;app_session_hourly_tmp</title>
<path fill="none" stroke="black" d="M852.89,-607.01C878.42,-593.45 915.26,-573.88 943.19,-559.04"/>
<polygon fill="black" stroke="black" points="945.1,-561.99 952.29,-554.21 941.81,-555.81 945.1,-561.99"/>
<text text-anchor="middle" x="937.79" y="-576.8" font-family="Times,serif" font-size="14.00">CREATE</text>
</g>
<!-- app_session_6hourly_tmp_old&#45;&gt;  -->
<g id="edge25" class="edge">
<title>app_session_6hourly_tmp_old&#45;&gt; </title>
<path fill="none" stroke="black" d="M773.67,-357.7C742.68,-340.25 701.79,-309.38 701.79,-268 701.79,-268 701.79,-268 701.79,-104 701.79,-81.26 689.38,-58.42 677.89,-42.15"/>
<polygon fill="black" stroke="black" points="680.48,-39.76 671.69,-33.83 674.86,-43.94 680.48,-39.76"/>
<text text-anchor="middle" x="720.29" y="-209.3" font-family="Times,serif" font-size="14.00">DROP</text>
</g>
<!-- app_session_hourly -->
<g id="node21" class="node">
<title>app_session_hourly</title>
<ellipse fill="none" stroke="black" cx="982.79" cy="-429" rx="80.69" ry="18"/>
<text text-anchor="middle" x="982.79" y="-425.3" font-family="Times,serif" font-size="14.00">app_session_hourly</text>
</g>
<!-- app_session_hourly_tmp&#45;&gt;app_session_hourly -->
<g id="edge26" class="edge">
<title>app_session_hourly_tmp&#45;&gt;app_session_hourly</title>
<path fill="none" stroke="black" d="M982.79,-518.97C982.79,-502.38 982.79,-476.88 982.79,-457.43"/>
<polygon fill="black" stroke="black" points="986.29,-457.34 982.79,-447.34 979.29,-457.34 986.29,-457.34"/>
<text text-anchor="middle" x="1011.79" y="-479.3" font-family="Times,serif" font-size="14.00">RENAME</text>
</g>
<!-- app_session_hourly_tmp_old -->
<g id="node22" class="node">
<title>app_session_hourly_tmp_old</title>
<ellipse fill="none" stroke="black" cx="834.79" cy="-267" rx="114.28" ry="18"/>
<text text-anchor="middle" x="834.79" y="-263.3" font-family="Times,serif" font-size="14.00">app_session_hourly_tmp_old</text>
</g>
<!-- app_session_hourly&#45;&gt;app_session_hourly_tmp_old -->
<g id="edge27" class="edge">
<title>app_session_hourly&#45;&gt;app_session_hourly_tmp_old</title>
<path fill="none" stroke="black" d="M963.31,-411.22C957.6,-405.75 951.6,-399.42 946.79,-393 935.95,-378.52 939.08,-371.14 927.79,-357 920.12,-347.39 915.84,-347.32 906.79,-339 890.33,-323.86 872.42,-306.2 858.58,-292.29"/>
<polygon fill="black" stroke="black" points="860.87,-289.62 851.34,-284.98 855.89,-294.55 860.87,-289.62"/>
<text text-anchor="middle" x="975.79" y="-371.3" font-family="Times,serif" font-size="14.00">RENAME</text>
</g>
<!-- app_aggregation_hourly_tmp -->
<g id="node26" class="node">
<title>app_aggregation_hourly_tmp</title>
<ellipse fill="none" stroke="black" cx="1030.79" cy="-321" rx="115.08" ry="18"/>
<text text-anchor="middle" x="1030.79" y="-317.3" font-family="Times,serif" font-size="14.00">app_aggregation_hourly_tmp</text>
</g>
<!-- app_session_hourly&#45;&gt;app_aggregation_hourly_tmp -->
<g id="edge28" class="edge">
<title>app_session_hourly&#45;&gt;app_aggregation_hourly_tmp</title>
<path fill="none" stroke="black" d="M997.25,-410.96C1001.39,-405.48 1005.64,-399.21 1008.79,-393 1015.82,-379.15 1021.1,-362.64 1024.73,-349.02"/>
<polygon fill="black" stroke="black" points="1028.13,-349.82 1027.18,-339.27 1021.34,-348.11 1028.13,-349.82"/>
<text text-anchor="middle" x="1047.79" y="-371.3" font-family="Times,serif" font-size="14.00">CREATE</text>
</g>
<!-- app_session_hourly_tmp_old&#45;&gt;  -->
<g id="edge29" class="edge">
<title>app_session_hourly_tmp_old&#45;&gt; </title>
<path fill="none" stroke="black" d="M828.6,-248.74C814.02,-210.02 774.3,-114.85 715.79,-54 708.25,-46.15 698.58,-39.36 689.36,-33.9"/>
<polygon fill="black" stroke="black" points="690.83,-30.71 680.39,-28.9 687.42,-36.82 690.83,-30.71"/>
<text text-anchor="middle" x="815.29" y="-155.3" font-family="Times,serif" font-size="14.00">DROP</text>
</g>
<!-- app_aggregation_app_log -->
<g id="node24" class="node">
<title>app_aggregation_app_log</title>
<ellipse fill="none" stroke="black" cx="1165.79" cy="-624" rx="102.08" ry="18"/>
<text text-anchor="middle" x="1165.79" y="-620.3" font-family="Times,serif" font-size="14.00">app_aggregation_app_log</text>
</g>
<!-- app_aggregation_app_log_tmp&#45;&gt;app_aggregation_app_log -->
<g id="edge30" class="edge">
<title>app_aggregation_app_log_tmp&#45;&gt;app_aggregation_app_log</title>
<path fill="none" stroke="black" d="M1133.06,-713.97C1139.25,-697.12 1148.83,-671.1 1156.03,-651.54"/>
<polygon fill="black" stroke="black" points="1159.37,-652.58 1159.54,-641.99 1152.8,-650.16 1159.37,-652.58"/>
<text text-anchor="middle" x="1180.79" y="-674.3" font-family="Times,serif" font-size="14.00">RENAME</text>
</g>
<!-- app_aggregation_app_log_tmp_old -->
<g id="node25" class="node">
<title>app_aggregation_app_log_tmp_old</title>
<ellipse fill="none" stroke="black" cx="1173.79" cy="-267" rx="135.68" ry="18"/>
<text text-anchor="middle" x="1173.79" y="-263.3" font-family="Times,serif" font-size="14.00">app_aggregation_app_log_tmp_old</text>
</g>
<!-- app_aggregation_app_log&#45;&gt;app_aggregation_app_log_tmp_old -->
<g id="edge31" class="edge">
<title>app_aggregation_app_log&#45;&gt;app_aggregation_app_log_tmp_old</title>
<path fill="none" stroke="black" d="M1168.37,-605.79C1170.71,-588.65 1173.79,-561.57 1173.79,-538 1173.79,-538 1173.79,-538 1173.79,-374 1173.79,-347.24 1173.79,-316.67 1173.79,-295.26"/>
<polygon fill="black" stroke="black" points="1177.29,-295.26 1173.79,-285.26 1170.29,-295.26 1177.29,-295.26"/>
<text text-anchor="middle" x="1202.79" y="-479.3" font-family="Times,serif" font-size="14.00">RENAME</text>
</g>
<!-- app_aggregation_app_log_tmp_old&#45;&gt;  -->
<g id="edge32" class="edge">
<title>app_aggregation_app_log_tmp_old&#45;&gt; </title>
<path fill="none" stroke="black" d="M1170.58,-248.86C1162.81,-212.51 1139.37,-127.67 1083.79,-87 1022.16,-41.9 787.99,-25.47 696.11,-20.68"/>
<polygon fill="black" stroke="black" points="696.05,-17.17 685.88,-20.16 695.7,-24.16 696.05,-17.17"/>
<text text-anchor="middle" x="1165.29" y="-155.3" font-family="Times,serif" font-size="14.00">DROP</text>
</g>
<!-- app_aggregation_hourly -->
<g id="node27" class="node">
<title>app_aggregation_hourly</title>
<ellipse fill="none" stroke="black" cx="966.79" cy="-213" rx="96.68" ry="18"/>
<text text-anchor="middle" x="966.79" y="-209.3" font-family="Times,serif" font-size="14.00">app_aggregation_hourly</text>
</g>
<!-- app_aggregation_hourly_tmp&#45;&gt;app_aggregation_hourly -->
<g id="edge33" class="edge">
<title>app_aggregation_hourly_tmp&#45;&gt;app_aggregation_hourly</title>
<path fill="none" stroke="black" d="M990.61,-304.01C982.81,-299.08 975.58,-292.82 970.79,-285 962.88,-272.08 961.63,-255.23 962.48,-241.19"/>
<polygon fill="black" stroke="black" points="965.98,-241.4 963.46,-231.11 959.01,-240.72 965.98,-241.4"/>
<text text-anchor="middle" x="999.79" y="-263.3" font-family="Times,serif" font-size="14.00">RENAME</text>
</g>
<!-- app_aggregation_hourly_tmp_old -->
<g id="node28" class="node">
<title>app_aggregation_hourly_tmp_old</title>
<ellipse fill="none" stroke="black" cx="943.79" cy="-105" rx="130.78" ry="18"/>
<text text-anchor="middle" x="943.79" y="-101.3" font-family="Times,serif" font-size="14.00">app_aggregation_hourly_tmp_old</text>
</g>
<!-- app_aggregation_hourly&#45;&gt;app_aggregation_hourly_tmp_old -->
<g id="edge34" class="edge">
<title>app_aggregation_hourly&#45;&gt;app_aggregation_hourly_tmp_old</title>
<path fill="none" stroke="black" d="M963.1,-194.97C959.48,-178.3 953.91,-152.65 949.68,-133.16"/>
<polygon fill="black" stroke="black" points="953.09,-132.37 947.55,-123.34 946.25,-133.86 953.09,-132.37"/>
<text text-anchor="middle" x="986.79" y="-155.3" font-family="Times,serif" font-size="14.00">RENAME</text>
</g>
<!-- app_aggregation_hourly_tmp_old&#45;&gt;  -->
<g id="edge35" class="edge">
<title>app_aggregation_hourly_tmp_old&#45;&gt; </title>
<path fill="none" stroke="black" d="M895.85,-88.16C864.84,-78.06 823.55,-64.87 786.79,-54 755.2,-44.65 718.95,-34.83 693.12,-27.97"/>
<polygon fill="black" stroke="black" points="693.98,-24.58 683.42,-25.41 692.19,-31.35 693.98,-24.58"/>
<text text-anchor="middle" x="852.29" y="-57.8" font-family="Times,serif" font-size="14.00">DROP</text>
</g>
<!-- phone_aggregation_app_log -->
<g id="node30" class="node">
<title>phone_aggregation_app_log</title>
<ellipse fill="none" stroke="black" cx="486.79" cy="-213" rx="110.48" ry="18"/>
<text text-anchor="middle" x="486.79" y="-209.3" font-family="Times,serif" font-size="14.00">phone_aggregation_app_log</text>
</g>
<!-- phone_aggregation_app_log_tmp&#45;&gt;phone_aggregation_app_log -->
<g id="edge36" class="edge">
<title>phone_aggregation_app_log_tmp&#45;&gt;phone_aggregation_app_log</title>
<path fill="none" stroke="black" d="M486.79,-302.97C486.79,-286.38 486.79,-260.88 486.79,-241.43"/>
<polygon fill="black" stroke="black" points="490.29,-241.34 486.79,-231.34 483.29,-241.34 490.29,-241.34"/>
<text text-anchor="middle" x="515.79" y="-263.3" font-family="Times,serif" font-size="14.00">RENAME</text>
</g>
<!-- phone_aggregation_app_log_tmp_old -->
<g id="node31" class="node">
<title>phone_aggregation_app_log_tmp_old</title>
<ellipse fill="none" stroke="black" cx="485.79" cy="-105" rx="144.87" ry="18"/>
<text text-anchor="middle" x="485.79" y="-101.3" font-family="Times,serif" font-size="14.00">phone_aggregation_app_log_tmp_old</text>
</g>
<!-- phone_aggregation_app_log&#45;&gt;phone_aggregation_app_log_tmp_old -->
<g id="edge37" class="edge">
<title>phone_aggregation_app_log&#45;&gt;phone_aggregation_app_log_tmp_old</title>
<path fill="none" stroke="black" d="M486.63,-194.97C486.47,-178.38 486.23,-152.88 486.05,-133.43"/>
<polygon fill="black" stroke="black" points="489.55,-133.31 485.95,-123.34 482.55,-133.37 489.55,-133.31"/>
<text text-anchor="middle" x="515.79" y="-155.3" font-family="Times,serif" font-size="14.00">RENAME</text>
</g>
<!-- phone_aggregation_app_log_tmp_old&#45;&gt;  -->
<g id="edge38" class="edge">
<title>phone_aggregation_app_log_tmp_old&#45;&gt; </title>
<path fill="none" stroke="black" d="M519.56,-87.41C551.15,-71.89 597.9,-48.92 628.36,-33.95"/>
<polygon fill="black" stroke="black" points="630.21,-36.94 637.64,-29.39 627.12,-30.66 630.21,-36.94"/>
<text text-anchor="middle" x="601.29" y="-57.8" font-family="Times,serif" font-size="14.00">DROP</text>
</g>
</g>
</svg>
